<?xml version="1.0" encoding="UTF-8"?>
<svg width="480px" height="80px" viewBox="0 0 480 80" version="1.1" xmlns="http://www.w3.org/2000/svg" xmlns:xlink="http://www.w3.org/1999/xlink">
    <!-- Generator: Sketch 64 (93537) - https://sketch.com -->
    <title>top-left copy 3</title>
    <desc>Created with Sketch.</desc>
    <g id="top-left-copy-3" stroke="none" stroke-width="1" fill="none" fill-rule="evenodd">
        <g id="Group" transform="translate(200.000000, 40.000000) scale(1, -1) translate(-200.000000, -40.000000) translate(2.000000, 2.000000)">
            <path d="M2.09500882,70.5162573 C2.3361497,69.9125489 2.55439312,69.3803969 2.74973909,68.9198014 C15.4213952,39.0420011 39.4164668,15.130132 69.3515627,2.56758502 C69.6963055,2.42291041 70.0835727,2.26454339 70.513364,2.09248394 C72.5642642,1.27143235 74.892437,2.26843105 75.7134802,4.31933452 C75.9027518,4.79212047 76,5.29670038 76,5.80596482 L76,72 C76,74.209139 74.209139,76 72,76 L5.80963402,76 C3.60049966,75.9999916 1.80964243,74.2091344 1.80964243,72 C1.80964243,71.4917815 1.90649206,70.9882186 2.09500882,70.5162573 Z" id="Path" fill="#7FBB49"></path>
            <path d="M82.0950088,70.5162573 C82.3361497,69.9125489 82.5543931,69.3803969 82.7497391,68.9198014 C95.4213952,39.0420011 119.416467,15.130132 149.351563,2.56758502 C149.696306,2.42291041 150.083573,2.26454339 150.513364,2.09248394 C152.564264,1.27143235 154.892437,2.26843105 155.71348,4.31933452 C155.902752,4.79212047 156,5.29670038 156,5.80596482 L156,72 C156,74.209139 154.209139,76 152,76 L85.809634,76 C83.6004997,75.9999916 81.8096424,74.2091344 81.8096424,72 C81.8096424,71.4917815 81.9064921,70.9882186 82.0950088,70.5162573 Z" id="Path-Copy" fill="#EF5227"></path>
            <path d="M162.095009,70.5162573 C162.33615,69.9125489 162.554393,69.3803969 162.749739,68.9198014 C175.421395,39.0420011 199.416467,15.130132 229.351563,2.56758502 C229.696306,2.42291041 230.083573,2.26454339 230.513364,2.09248394 C232.564264,1.27143235 234.892437,2.26843105 235.71348,4.31933452 C235.902752,4.79212047 236,5.29670038 236,5.80596482 L236,72 C236,74.209139 234.209139,76 232,76 L165.809634,76 C163.6005,75.9999916 161.809642,74.2091344 161.809642,72 C161.809642,71.4917815 161.906492,70.9882186 162.095009,70.5162573 Z" id="Path-Copy-2" fill="#636CB7"></path>
            <path d="M242.095009,70.5162573 C242.33615,69.9125489 242.554393,69.3803969 242.749739,68.9198014 C255.421395,39.0420011 279.416467,15.130132 309.351563,2.56758502 C309.696306,2.42291041 310.083573,2.26454339 310.513364,2.09248394 C312.564264,1.27143235 314.892437,2.26843105 315.71348,4.31933452 C315.902752,4.79212047 316,5.29670038 316,5.80596482 L316,72 C316,74.209139 314.209139,76 312,76 L245.809634,76 C243.6005,75.9999916 241.809642,74.2091344 241.809642,72 C241.809642,71.4917815 241.906492,70.9882186 242.095009,70.5162573 Z" id="Path-Copy-3" fill="#FEC356"></path>
            <path d="M322.095009,70.5162573 C322.33615,69.9125489 322.554393,69.3803969 322.749739,68.9198014 C335.421395,39.0420011 359.416467,15.130132 389.351563,2.56758502 C389.696306,2.42291041 390.083573,2.26454339 390.513364,2.09248394 C392.564264,1.27143235 394.892437,2.26843105 395.71348,4.31933452 C395.902752,4.79212047 396,5.29670038 396,5.80596482 L396,72 C396,74.209139 394.209139,76 392,76 L325.809634,76 C323.6005,75.9999916 321.809642,74.2091344 321.809642,72 C321.809642,71.4917815 321.906492,70.9882186 322.095009,70.5162573 Z" id="Path-Copy-4" fill="#636CB7" transform="translate(358.000000, 38.000000) scale(-1, -1) translate(-358.000000, -38.000000) "></path>
        </g>
    </g>
</svg>