<?xml version="1.0" encoding="UTF-8"?>
<svg width="480px" height="80px" viewBox="0 0 480 80" version="1.1" xmlns="http://www.w3.org/2000/svg" xmlns:xlink="http://www.w3.org/1999/xlink">
    <!-- Generator: Sketch 64 (93537) - https://sketch.com -->
    <title>top-middle copy 5</title>
    <desc>Created with Sketch.</desc>
    <g id="top-middle-copy-5" stroke="none" stroke-width="1" fill="none" fill-rule="evenodd">
        <rect id="Rectangle-Copy-3" fill="#636CB7" x="2" y="2" width="76" height="76" rx="4"></rect>
        <rect id="Rectangle-Copy-5" fill="#FEC356" x="82" y="2" width="76" height="76" rx="4"></rect>
        <rect id="Rectangle-Copy-9" fill="#7FBB49" x="162" y="2" width="76" height="76" rx="4"></rect>
        <rect id="Rectangle-Copy-10" fill="#EF5227" x="242" y="2" width="76" height="76" rx="4"></rect>
        <path d="M324.095009,72.5162573 C324.33615,71.9125489 324.554393,71.3803969 324.749739,70.9198014 C337.421395,41.0420011 361.416467,17.130132 391.351563,4.56758502 C391.696306,4.42291041 392.083573,4.26454339 392.513364,4.09248394 C394.564264,3.27143235 396.892437,4.26843105 397.71348,6.31933452 C397.902752,6.79212047 398,7.29670038 398,7.80596482 L398,74 C398,76.209139 396.209139,78 394,78 L327.809634,78 C325.6005,77.9999916 323.809642,76.2091344 323.809642,74 C323.809642,73.4917815 323.906492,72.9882186 324.095009,72.5162573 Z" id="Path-Copy-4" fill="#EF5227" transform="translate(360.000000, 40.000000) scale(-1, -1) translate(-360.000000, -40.000000) "></path>
    </g>
</svg>