<?xml version="1.0" encoding="UTF-8"?>
<svg width="480px" height="80px" viewBox="0 0 480 80" version="1.1" xmlns="http://www.w3.org/2000/svg" xmlns:xlink="http://www.w3.org/1999/xlink">
    <!-- Generator: Sketch 64 (93537) - https://sketch.com -->
    <title>top-right copy 2</title>
    <desc>Created with Sketch.</desc>
    <g id="top-right-copy-2" stroke="none" stroke-width="1" fill="none" fill-rule="evenodd">
        <path d="M4.09500882,72.5162573 C4.3361497,71.9125489 4.55439312,71.3803969 4.74973909,70.9198014 C17.4213952,41.0420011 41.4164668,17.130132 71.3515627,4.56758502 C71.6963055,4.42291041 72.0835727,4.26454339 72.513364,4.09248394 C74.5642642,3.27143235 76.892437,4.26843105 77.7134802,6.31933452 C77.9027518,6.79212047 78,7.29670038 78,7.80596482 L78,74 C78,76.209139 76.209139,78 74,78 L7.80963402,78 C5.60049966,77.9999916 3.80964243,76.2091344 3.80964243,74 C3.80964243,73.4917815 3.90649206,72.9882186 4.09500882,72.5162573 Z" id="Path-Copy" fill="#EF5227" transform="translate(40.000000, 40.000000) scale(-1, 1) translate(-40.000000, -40.000000) "></path>
        <path d="M84.0950088,72.5162573 C84.3361497,71.9125489 84.5543931,71.3803969 84.7497391,70.9198014 C97.4213952,41.0420011 121.416467,17.130132 151.351563,4.56758502 C151.696306,4.42291041 152.083573,4.26454339 152.513364,4.09248394 C154.564264,3.27143235 156.892437,4.26843105 157.71348,6.31933452 C157.902752,6.79212047 158,7.29670038 158,7.80596482 L158,74 C158,76.209139 156.209139,78 154,78 L87.809634,78 C85.6004997,77.9999916 83.8096424,76.2091344 83.8096424,74 C83.8096424,73.4917815 83.9064921,72.9882186 84.0950088,72.5162573 Z" id="Path-Copy-2" fill="#636CB7" transform="translate(120.000000, 40.000000) scale(-1, 1) translate(-120.000000, -40.000000) "></path>
        <path d="M164.095009,72.5162573 C164.33615,71.9125489 164.554393,71.3803969 164.749739,70.9198014 C177.421395,41.0420011 201.416467,17.130132 231.351563,4.56758502 C231.696306,4.42291041 232.083573,4.26454339 232.513364,4.09248394 C234.564264,3.27143235 236.892437,4.26843105 237.71348,6.31933452 C237.902752,6.79212047 238,7.29670038 238,7.80596482 L238,74 C238,76.209139 236.209139,78 234,78 L167.809634,78 C165.6005,77.9999916 163.809642,76.2091344 163.809642,74 C163.809642,73.4917815 163.906492,72.9882186 164.095009,72.5162573 Z" id="Path-Copy-3" fill="#FEC356" transform="translate(200.000000, 40.000000) scale(-1, 1) translate(-200.000000, -40.000000) "></path>
        <path d="M244.095009,72.5162573 C244.33615,71.9125489 244.554393,71.3803969 244.749739,70.9198014 C257.421395,41.0420011 281.416467,17.130132 311.351563,4.56758502 C311.696306,4.42291041 312.083573,4.26454339 312.513364,4.09248394 C314.564264,3.27143235 316.892437,4.26843105 317.71348,6.31933452 C317.902752,6.79212047 318,7.29670038 318,7.80596482 L318,74 C318,76.209139 316.209139,78 314,78 L247.809634,78 C245.6005,77.9999916 243.809642,76.2091344 243.809642,74 C243.809642,73.4917815 243.906492,72.9882186 244.095009,72.5162573 Z" id="Path-Copy-4" fill="#7FBB49" transform="translate(280.000000, 40.000000) scale(-1, 1) translate(-280.000000, -40.000000) "></path>
        <path d="M324.095009,72.5162573 C324.33615,71.9125489 324.554393,71.3803969 324.749739,70.9198014 C337.421395,41.0420011 361.416467,17.130132 391.351563,4.56758502 C391.696306,4.42291041 392.083573,4.26454339 392.513364,4.09248394 C394.564264,3.27143235 396.892437,4.26843105 397.71348,6.31933452 C397.902752,6.79212047 398,7.29670038 398,7.80596482 L398,74 C398,76.209139 396.209139,78 394,78 L327.809634,78 C325.6005,77.9999916 323.809642,76.2091344 323.809642,74 C323.809642,73.4917815 323.906492,72.9882186 324.095009,72.5162573 Z" id="Path-Copy-5" fill="#7FBB49" transform="translate(360.000000, 40.000000) scale(-1, 1) rotate(-180.000000) translate(-360.000000, -40.000000) "></path>
    </g>
</svg>